<mxfile host="app.diagrams.net" modified="2024-02-09T03:51:27.181Z" agent="Mozilla/5.0 (Windows NT 10.0; Win64; x64) AppleWebKit/537.36 (KHTML, like Gecko) Chrome/121.0.0.0 Safari/537.36" etag="x-Vp5u0DH0Z5ORhIuULW" version="23.1.2" type="github">
  <diagram name="Page-1" id="vAEatEsLHrIx9eN2LmbF">
    <mxGraphModel dx="880" dy="426" grid="1" gridSize="10" guides="1" tooltips="1" connect="1" arrows="1" fold="1" page="1" pageScale="1" pageWidth="850" pageHeight="1100" math="0" shadow="0">
      <root>
        <mxCell id="0" />
        <mxCell id="1" parent="0" />
        <mxCell id="pXW90rsx0bg_8WNFCdnt-8" value="" style="edgeStyle=orthogonalEdgeStyle;rounded=0;orthogonalLoop=1;jettySize=auto;html=1;" edge="1" parent="1" source="pXW90rsx0bg_8WNFCdnt-1" target="pXW90rsx0bg_8WNFCdnt-6">
          <mxGeometry relative="1" as="geometry" />
        </mxCell>
        <mxCell id="pXW90rsx0bg_8WNFCdnt-1" value="User requests for new license" style="whiteSpace=wrap;html=1;aspect=fixed;" vertex="1" parent="1">
          <mxGeometry x="210" y="60" width="80" height="80" as="geometry" />
        </mxCell>
        <mxCell id="pXW90rsx0bg_8WNFCdnt-3" value="" style="edgeStyle=orthogonalEdgeStyle;rounded=0;orthogonalLoop=1;jettySize=auto;html=1;" edge="1" parent="1" source="pXW90rsx0bg_8WNFCdnt-2" target="pXW90rsx0bg_8WNFCdnt-1">
          <mxGeometry relative="1" as="geometry" />
        </mxCell>
        <mxCell id="pXW90rsx0bg_8WNFCdnt-2" value="Start" style="ellipse;whiteSpace=wrap;html=1;" vertex="1" parent="1">
          <mxGeometry x="40" y="60" width="90" height="50" as="geometry" />
        </mxCell>
        <mxCell id="pXW90rsx0bg_8WNFCdnt-10" value="" style="edgeStyle=orthogonalEdgeStyle;rounded=0;orthogonalLoop=1;jettySize=auto;html=1;" edge="1" parent="1" source="pXW90rsx0bg_8WNFCdnt-6" target="pXW90rsx0bg_8WNFCdnt-9">
          <mxGeometry relative="1" as="geometry" />
        </mxCell>
        <mxCell id="pXW90rsx0bg_8WNFCdnt-6" value="Request Mgmt&lt;br&gt;(Process Branch)" style="shape=process;whiteSpace=wrap;html=1;backgroundOutline=1;" vertex="1" parent="1">
          <mxGeometry x="320" y="70" width="120" height="60" as="geometry" />
        </mxCell>
        <mxCell id="pXW90rsx0bg_8WNFCdnt-13" value="" style="edgeStyle=orthogonalEdgeStyle;rounded=0;orthogonalLoop=1;jettySize=auto;html=1;" edge="1" parent="1" source="pXW90rsx0bg_8WNFCdnt-9" target="pXW90rsx0bg_8WNFCdnt-11">
          <mxGeometry relative="1" as="geometry" />
        </mxCell>
        <mxCell id="pXW90rsx0bg_8WNFCdnt-9" value="Request is fully approved" style="whiteSpace=wrap;html=1;aspect=fixed;" vertex="1" parent="1">
          <mxGeometry x="470" y="60" width="80" height="80" as="geometry" />
        </mxCell>
        <mxCell id="pXW90rsx0bg_8WNFCdnt-14" value="" style="edgeStyle=orthogonalEdgeStyle;rounded=0;orthogonalLoop=1;jettySize=auto;html=1;" edge="1" parent="1" source="pXW90rsx0bg_8WNFCdnt-11" target="pXW90rsx0bg_8WNFCdnt-12">
          <mxGeometry relative="1" as="geometry" />
        </mxCell>
        <mxCell id="pXW90rsx0bg_8WNFCdnt-11" value="Check inventory" style="rhombus;whiteSpace=wrap;html=1;" vertex="1" parent="1">
          <mxGeometry x="590" y="60" width="80" height="80" as="geometry" />
        </mxCell>
        <mxCell id="pXW90rsx0bg_8WNFCdnt-12" value="Inventory Mgmt&lt;br&gt;(License)" style="shape=process;whiteSpace=wrap;html=1;backgroundOutline=1;" vertex="1" parent="1">
          <mxGeometry x="710" y="70" width="120" height="60" as="geometry" />
        </mxCell>
      </root>
    </mxGraphModel>
  </diagram>
</mxfile>
